<svg xmlns="http://www.w3.org/2000/svg" viewBox="0 0 160 120" fill="none">
 <defs><linearGradient id="silver" x1="45" y1="20" x2="102" y2="98" gradientUnits="userSpaceOnUse"><stop stop-color="#fbffff"/><stop offset=".33" stop-color="#b9c8d5"/><stop offset=".54" stop-color="#f6fbff"/><stop offset=".72" stop-color="#647c91"/><stop offset="1" stop-color="#c4d4df"/></linearGradient><linearGradient id="dark" x1="80" y1="38" x2="80" y2="99" gradientUnits="userSpaceOnUse"><stop stop-color="#5e7689"/><stop offset="1" stop-color="#1c2c3b"/></linearGradient></defs>
 <g fill="url(#silver)" stroke="#e1ebf4" stroke-width="1.2" stroke-linejoin="round"><path d="M66 46C43 42 24 29 10 19l7 29 18 7-13-1 8 15 19 3-13 2 13 12 23-6Z"/><path d="M94 46c23-4 42-17 56-27l-7 29-18 7 13-1-8 15-19 3 13 2-13 12-23-6Z"/></g>
 <g stroke="#5f778b" stroke-width="2"><path d="m20 34 45 24M31 56l35 14m74-36L95 58m34-2L94 70"/></g>
 <path d="m80 31 24 12v28c0 14-11 26-24 34-13-8-24-20-24-34V43Z" fill="url(#silver)" stroke="#eef8ff"/>
 <path d="m80 40 17 8v22c0 10-7 20-17 26-10-6-17-16-17-26V48Z" fill="url(#dark)"/>
 <path d="m80 48 10 19-10 17-10-17Z" fill="url(#silver)"/><path d="M80 48v36L70 67Z" fill="#fcffff" opacity=".6"/>
</svg>
